<?xml version="1.0" encoding="UTF-8" standalone="no"?>
<!-- Created with Inkscape (http://www.inkscape.org/) -->

<svg
   width="10.914516mm"
   height="12.72358mm"
   viewBox="0 0 10.914516 12.72358"
   version="1.1"
   id="svg118235"
   inkscape:version="1.1 (c68e22c387, 2021-05-23)"
   sodipodi:docname="angolan_r.svg"
   xmlns:inkscape="http://www.inkscape.org/namespaces/inkscape"
   xmlns:sodipodi="http://sodipodi.sourceforge.net/DTD/sodipodi-0.dtd"
   xmlns="http://www.w3.org/2000/svg"
   xmlns:svg="http://www.w3.org/2000/svg">
  <sodipodi:namedview
     id="namedview118237"
     pagecolor="#ffffff"
     bordercolor="#111111"
     borderopacity="1"
     inkscape:pageshadow="0"
     inkscape:pageopacity="0"
     inkscape:pagecheckerboard="1"
     inkscape:document-units="mm"
     showgrid="false"
     inkscape:object-paths="true"
     inkscape:zoom="6.8132435"
     inkscape:cx="13.723273"
     inkscape:cy="24.584473"
     inkscape:window-width="1366"
     inkscape:window-height="705"
     inkscape:window-x="-8"
     inkscape:window-y="-8"
     inkscape:window-maximized="1"
     inkscape:current-layer="layer1"
     fit-margin-top="0"
     fit-margin-left="0"
     fit-margin-right="0"
     fit-margin-bottom="0" />
  <defs
     id="defs118232">
    <rect
       x="57.999348"
       y="403.47372"
       width="49.720722"
       height="54.243008"
       id="rect183570" />
  </defs>
  <g
     inkscape:label="Layer 1"
     inkscape:groupmode="layer"
     id="layer1"
     transform="translate(-70.980443,-127.28308)">
    <path
       id="_x31_2"
       style="fill:#ce1126;stroke-width:0.239961"
       transform="scale(0.26458333)"
       d="m 287.12695,487.22852 c -2.82506,0 -5.30428,0.92356 -7.4375,2.76953 -2.10438,1.80827 -3.74777,4.52014 -4.92968,8.13672 -1.04878,3.1757 -1.6298,6.9786 -1.74805,11.40039 0.25362,-0.0419 0.50594,-0.0912 0.75976,-0.13086 0.9762,-0.15266 1.95746,-0.27033 2.93555,-0.41016 -0.054,-0.27454 -0.0879,-0.55707 -0.0879,-0.85547 0,-0.90414 0.21603,-1.62102 0.64844,-2.14844 0.46123,-0.52742 0.98009,-0.79101 1.55664,-0.79101 h 1.08008 c 0.46123,-3.69192 0.89329,-6.87604 1.29687,-9.55078 0.37475,-2.44873 1.58608,-3.67188 3.63281,-3.67188 1.64315,0 2.46485,0.95955 2.46485,2.88086 0,0.41441 -0.0142,0.73492 -0.043,0.96094 l -1.29688,9.38086 c 1.55667,-0.11288 2.96794,-0.60216 4.23633,-1.46875 1.29723,-0.86647 2.32102,-2.07262 3.07031,-3.61719 0.77834,-1.54459 1.16797,-3.29688 1.16797,-5.25586 0,-2.37337 -0.6198,-4.23753 -1.85937,-5.59375 -1.23957,-1.35622 -3.05461,-2.03515 -5.44727,-2.03515 z m 3.65235,21.46679 c -0.004,10e-4 -0.008,0.004 -0.0117,0.006 -5.8e-4,0.002 -8.4e-4,0.002 -0.002,0.004 0.006,0.002 0.01,0.006 0.0156,0.008 -7.9e-4,-0.006 -8e-4,-0.0117 -0.002,-0.0176 z m -0.0137,0.01 c 2.4e-4,-10e-4 -1.8e-4,-0.003 0,-0.004 -9.6e-4,4.8e-4 -0.003,8.4e-4 -0.004,0.002 0.001,5.1e-4 0.002,8.4e-4 0.004,0.002 z" />
    <path
       id="_x31_1"
       style="stroke-width:0.239961"
       transform="scale(0.26458333)"
       d="m 273.31641,505.02148 c -0.21899,1.92844 -0.33008,4.00301 -0.33008,6.22461 0,2.41104 0.18774,4.48191 0.5625,6.21485 0.37475,1.73294 0.83509,3.03392 1.38281,3.90039 0.54772,0.86649 1.06658,1.29883 1.55664,1.29883 0.37475,0 0.67759,-0.24463 0.9082,-0.73438 0.25945,-0.48975 0.46134,-1.28054 0.60547,-2.37305 l 1.16797,-8.47656 c -0.98012,0 -1.65845,-0.30162 -2.0332,-0.90429 -0.34593,-0.60276 -0.51758,-1.27975 -0.51758,-2.03321 0,-0.90414 0.21603,-1.62102 0.64844,-2.14844 0.46123,-0.52742 0.98009,-0.79101 1.55664,-0.79101 h 1.08008 c 0.008,-0.0614 0.0158,-0.11663 0.0234,-0.17774 z m 12.66797,0 -0.0254,0.17774 c 0.42381,-0.0307 0.83585,-0.0911 1.23829,-0.17774 z m 9.37304,2.47852 c -0.003,0.0266 -0.005,0.0534 -0.008,0.0801 0.0149,-0.0189 0.0304,-0.0374 0.0449,-0.0566 -0.0123,-0.008 -0.025,-0.015 -0.0371,-0.0234 z m -0.20703,0.0547 c -5.4e-4,0.003 -5e-4,0.008 0,0.0137 2.5e-4,0.003 0.002,0.005 0.002,0.008 0.0116,2e-4 0.0237,-6.6e-4 0.0352,0 -0.004,-0.005 -0.006,-0.01 -0.01,-0.0137 -0.009,-0.003 -0.0179,-0.004 -0.0273,-0.008 z m 3.55273,1.7539 c 0.0133,0.0222 0.0272,0.0445 0.041,0.0664 0.0134,-0.012 0.028,-0.0254 0.041,-0.0371 -0.0284,-0.0108 -0.0546,-0.0205 -0.082,-0.0293 z m 0.12891,0.0469 c -0.0207,0.0189 -0.041,0.037 -0.0625,0.0566 0.006,0.01 0.0131,0.0195 0.0195,0.0293 0.0144,-0.0286 0.0286,-0.0573 0.043,-0.0859 z m -13.69531,1.77734 c -0.1153,0.79113 -0.44642,3.27732 -0.99414,7.45899 -0.23063,1.88364 -0.374,3.03288 -0.43164,3.44726 -0.28827,2.29803 -0.86565,4.06929 -1.73047,5.3125 -0.62421,0.87012 -1.48251,1.42393 -2.57227,1.66602 h 18.64844 c -1.26858,-0.25739 -2.38985,-0.86801 -3.36328,-1.83594 -1.29722,-1.31853 -2.53683,-3.57906 -3.71875,-6.78125 -0.9513,-2.56174 -1.70033,-4.44487 -2.24805,-5.65039 -0.54771,-1.24319 -1.09681,-2.12883 -1.64453,-2.65625 -0.51889,-0.52742 -1.16698,-0.8479 -1.94531,-0.96094 z m 14.2832,6.55078 c -0.0251,0.0127 -0.0482,0.026 -0.0742,0.0391 0.003,10e-4 0.005,7.9e-4 0.008,0.002 0.0163,-0.008 0.057,-0.0292 0.0723,-0.0371 -0.002,-0.001 -0.004,-0.003 -0.006,-0.004 z m -29.9414,3.03321 c -4e-4,0.005 -0.002,0.0104 -0.002,0.0156 0.002,6.7e-4 0.004,7.2e-4 0.006,0.002 -0.002,-0.006 -0.002,-0.0119 -0.004,-0.0176 z" />
    <path
       id="_x31_0"
       style="fill:#f9d616;fill-opacity:1;stroke-width:0.239961"
       transform="scale(0.26458333)"
       d="m 277.95117,496.38281 -0.96875,2.98438 h -3.13867 l 2.53906,1.84375 -0.9707,2.98437 2.53906,-1.84375 2.53906,1.84375 -0.9707,-2.98437 2.53906,-1.84375 h -3.13867 z" />
    <path
       id="_x39_"
       style="fill:#f9d616;fill-opacity:1;stroke-width:0.239961"
       transform="scale(0.26458333)"
       d="m 281.57422,493.08008 -0.69727,2.29687 c 0.63158,0.19174 1.24403,0.44481 1.82617,0.75586 l 1.13086,-2.11523 c -0.72084,-0.38536 -1.47749,-0.70015 -2.25976,-0.9375 z m 4.29297,2.29687 -1.52149,1.85352 c 0.5104,0.41873 0.97776,0.88805 1.39649,1.39844 l 1.85547,-1.52344 c -0.51832,-0.63182 -1.09866,-1.20997 -1.73047,-1.72852 z m 3.08789,3.76172 -2.11524,1.13281 c 0.31123,0.58239 0.56413,1.1924 0.75586,1.82422 l 2.29688,-0.69531 c -0.23732,-0.78229 -0.55213,-1.54089 -0.9375,-2.26172 z m 1.41406,4.66016 -2.38867,0.23437 c 0.0648,0.657 0.0648,1.31957 0,1.97657 l 2.38867,0.23437 c 0.0802,-0.81347 0.0802,-1.63184 0,-2.44531 z m -2.77344,4.14844 c -0.19172,0.63182 -0.44461,1.24401 -0.75586,1.82617 l 2.11524,1.13086 c 0.38537,-0.72087 0.70018,-1.47775 0.9375,-2.25977 z m -1.85351,3.46679 c -0.41897,0.51043 -0.88633,0.97971 -1.39649,1.39844 l 1.52149,1.85352 c 0.63158,-0.51829 1.21191,-1.0967 1.73047,-1.72852 z m -12.54102,2.4961 -1.13281,2.11523 c 0.72084,0.38536 1.47969,0.70015 2.26172,0.9375 l 0.69531,-2.29687 c -0.63182,-0.19151 -1.24207,-0.44481 -1.82422,-0.75586 z m 9.50195,0 c -0.58214,0.31124 -1.19459,0.56423 -1.82617,0.75586 l 0.69727,2.29687 c 0.78227,-0.23732 1.53892,-0.55214 2.25976,-0.9375 z m -5.74023,1.14062 -0.23437,2.38867 c 0.81322,0.0797 1.63184,0.0797 2.44531,0 l -0.23438,-2.38867 c -0.65701,0.065 -1.31955,0.065 -1.97656,0 z"
       sodipodi:nodetypes="ccccccccccccccccccccccccccccccccccccccccccccc" />
    <path
       id="_x38_"
       fill="#f9d616"
       d="m 75.89402,136.78907 0.308686,-0.36196 c 0.16247,0.15727 0.381192,0.31218 0.539852,0.453 0.158661,0.14076 0.280243,0.25783 0.378652,0.41782 0.144248,0.23447 -0.01771,0.49998 -0.242276,0.34412 -0.121456,-0.0843 -0.19777,-0.3118 -0.383731,-0.50005 -0.137836,-0.11732 -0.24634,-0.2403 -0.592676,-0.2996 -0.01663,-0.003 -0.02152,-0.038 -0.0085,-0.0533 z"
       style="stroke-width:0.0634896" />
    <path
       id="_x37_"
       d="m 76.352034,136.68031 c 0,0.0152 -0.0081,0.0293 -0.02133,0.037 -0.01321,0.008 -0.02946,0.008 -0.04266,0 -0.01321,-0.008 -0.02127,-0.0217 -0.02127,-0.037 0,-0.0152 0.0081,-0.0293 0.02127,-0.0369 0.01321,-0.008 0.02946,-0.008 0.04266,0 0.01321,0.008 0.02133,0.0217 0.02133,0.0369 z"
       style="stroke-width:0.0634896" />
    <path
       id="_x36_"
       style="fill:#f9d616;fill-opacity:1;stroke-width:0.239961"
       transform="scale(0.26458333)"
       d="m 279.15039,493.62891 -0.22656,2.13476 c 4.70275,0.49338 8.38672,4.43087 8.38672,9.26367 0,5.16586 -4.1935,9.35743 -9.35938,9.35743 -2.25251,0 -4.28693,-0.83294 -5.90234,-2.16016 l -1.36914,1.66797 c 1.98783,1.63196 4.50065,2.65234 7.27148,2.65234 6.35799,0 11.51758,-5.15958 11.51758,-11.51758 0,-5.94648 -4.53243,-10.78917 -10.31836,-11.39843 z" />
    <path
       id="_x35_"
       d="m 73.810546,135.64536 0.856982,0.50671 0.186279,0.72283 0.983707,-0.0745 0.432174,-0.50678 -1.602223,-1.1103 z"
       style="stroke-width:0.0634896" />
    <path
       id="_x34_"
       style="fill:#f9d616;fill-opacity:1;stroke-width:0.239961"
       transform="scale(0.26458333)"
       d="m 273.80859,503.39258 c -1.92064,3.7494 0.51389,5.99114 2.08203,6.88281 3.99151,2.26957 6.63969,3.76529 10.80469,6.53516 l 0.48763,-0.57274 0.58659,-0.68898 c -4.11076,-2.93783 -13.83999,-9.69472 -13.96094,-12.15625 z"
       sodipodi:nodetypes="cscccc" />
    <path
       id="_x32_"
       d="m 76.666053,136.95395 c 6.4e-5,0.0153 -0.0081,0.0293 -0.02127,0.037 -0.01321,0.008 -0.02946,0.008 -0.04266,0 -0.01321,-0.008 -0.02133,-0.0217 -0.02127,-0.037 -6.3e-5,-0.0152 0.0081,-0.0293 0.02127,-0.0369 0.01321,-0.008 0.02946,-0.008 0.04266,0 0.01314,0.008 0.02133,0.0217 0.02127,0.0369 z"
       style="stroke-width:0.0634896" />
    <path
       id="_x31_"
       d="m 76.941979,137.23432 c 0,0.0153 -0.0081,0.0293 -0.02127,0.0369 -0.01321,0.008 -0.02946,0.008 -0.04266,0 -0.01321,-0.008 -0.02133,-0.0216 -0.02127,-0.0369 -6.4e-5,-0.0152 0.0081,-0.0293 0.02127,-0.0369 0.01314,-0.008 0.02946,-0.008 0.04266,0 0.01314,0.008 0.02127,0.0218 0.02127,0.0369 z"
       style="stroke-width:0.0634896" />
    <path
       d="m 81.574613,136.59776 q 0.14873,0 0.228816,0.17941 0.09153,0.17942 0.09153,0.4934 0,0.5831 -0.217375,0.92698 -0.549158,0.86717 -1.109757,1.34562 -0.560599,0.46349 -1.327132,0.46349 -0.743651,0 -1.269928,-0.5233 -0.514835,-0.52329 -0.983908,-1.79416 -0.377546,-1.01669 -0.594921,-1.49513 -0.217375,-0.49339 -0.43475,-0.70271 -0.205934,-0.20932 -0.514836,-0.25418 -0.04576,0.31398 -0.263138,1.97358 -0.09153,0.74757 -0.114408,0.91203 -0.114408,0.91203 -0.457632,1.40543 -0.343224,0.47844 -1.041112,0.47844 -0.766533,0 -1.361454,-0.5831 -0.583481,-0.59806 -0.903823,-1.64465 -0.320342,-1.06154 -0.320342,-2.40716 0,-2.51183 0.663566,-4.33589 0.675007,-1.82406 1.87629,-2.78095 1.212724,-0.97183 2.791553,-0.97183 1.098316,0 1.841968,0.43359 0.743652,0.43358 1.098316,1.1961 0.366105,0.76252 0.366105,1.71941 0,0.83727 -0.308901,1.64464 -0.297461,0.79242 -0.903823,1.40543 -0.606362,0.613 -1.475862,0.91203 0.549158,0.19436 0.846619,0.62795 0.29746,0.43359 0.594921,1.27087 0.320342,0.89708 0.629244,1.31571 0.320342,0.41864 0.73221,0.41864 0.366106,0 0.697889,-0.31398 0.331783,-0.32893 0.835178,-1.1064 0.137289,-0.20931 0.308901,-0.20931 z m -7.711094,-1.37553 q -0.388987,0 -0.537718,-0.23922 -0.137289,-0.23922 -0.137289,-0.53825 0,-0.35883 0.171612,-0.56815 0.183052,-0.20932 0.411868,-0.20932 h 0.28602 q 0.183053,-1.46523 0.343224,-2.52677 0.14873,-0.97184 0.961027,-0.97184 0.652125,0 0.652125,0.76252 0,0.16447 -0.01144,0.25417 l -0.343224,2.48192 q 0.617803,-0.0448 1.121198,-0.38873 0.514836,-0.34388 0.812296,-0.95688 0.308902,-0.61301 0.308902,-1.39048 0,-0.94193 -0.491955,-1.48018 -0.491954,-0.53825 -1.441539,-0.53825 -1.121198,0 -1.967817,0.73262 -0.835178,0.71766 -1.30425,2.15299 -0.469073,1.42037 -0.469073,3.46871 0,0.95688 0.148731,1.64464 0.14873,0.68776 0.366105,1.03164 0.217375,0.34389 0.411869,0.34389 0.14873,0 0.240256,-0.19437 0.102967,-0.19437 0.160171,-0.62796 z"
       id="path152120-7"
       style="font-size:48px;line-height:60.0001px;font-family:Pacifico;-inkscape-font-specification:Pacifico;white-space:pre;fill:#d79922;fill-opacity:1;stroke-width:0.272475" />
  </g>
</svg>
